<svg width="100" height="50" viewBox="0 0 100 50" fill="none" xmlns="http://www.w3.org/2000/svg">
<path d="M21.9533 30.8387C21.9533 37.8066 27.6019 43.4552 34.5698 43.4552V43.4552C41.5377 43.4552 47.1864 37.8066 47.1864 30.8387V26.1075C47.1864 25.672 46.8333 25.319 46.3978 25.319H22.7418C22.3063 25.319 21.9533 25.672 21.9533 26.1075V30.8387Z" fill="#CEF5A5"/>
<path d="M34.2925 41.9661C37.168 41.9661 39.4994 41.4415 41.2868 40.3924C43.1131 39.3821 44.4537 37.9832 45.3086 36.1958C46.2023 34.4472 46.6491 32.4461 46.6491 30.1924C46.6491 29.3375 46.6103 28.5215 46.5326 27.7444C46.4937 27.0061 46.416 26.2872 46.2994 25.5878H22.1108C21.9553 26.2872 21.8388 27.0644 21.761 27.9192C21.7222 28.7741 21.7028 29.6289 21.7028 30.4838C21.7028 34.0975 22.7519 36.9147 24.8502 38.9353C26.9874 40.9558 30.1348 41.9661 34.2925 41.9661ZM34.4091 49.5433C30.2125 49.5433 26.7154 48.7467 23.9176 47.1536C21.1588 45.5604 19.0993 43.3456 17.7393 40.509C16.3793 37.6724 15.6993 34.3307 15.6993 30.4838C15.6993 29.2015 15.777 27.6861 15.9325 25.9375C16.049 24.1889 16.3599 22.5763 16.865 21.0998C17.5256 19.1958 18.6719 18.2438 20.3039 18.2438H48.9223C49.6606 18.2438 50.224 18.438 50.6126 18.8266C51.0011 19.254 51.312 19.798 51.5452 20.4586C51.9726 21.8963 52.264 23.4506 52.4194 25.1215C52.5749 26.8312 52.6526 28.4244 52.6526 29.9009C52.6526 33.8255 51.9726 37.245 50.6126 40.1593C49.2914 43.1124 47.2903 45.405 44.6091 47.037C41.928 48.7079 38.528 49.5433 34.4091 49.5433Z" fill="#284F58"/>
<path d="M53.1005 19.6021C53.1005 12.7431 58.6608 7.18274 65.5199 7.18274V7.18274C72.3789 7.18274 77.9392 12.7431 77.9392 19.6021V24.5305C77.9392 24.9659 77.5862 25.319 77.1507 25.319H53.889C53.4535 25.319 53.1005 24.9659 53.1005 24.5305V19.6021Z" fill="#CEF5A5"/>
<path d="M65.7074 8.8133C62.8319 8.8133 60.5005 9.33787 58.713 10.387C56.8868 11.3973 55.5462 12.7962 54.6913 14.5836C53.7976 16.3322 53.3507 18.3333 53.3507 20.5871C53.3507 21.4419 53.3896 22.2579 53.4673 23.0351C53.5062 23.7734 53.5839 24.4922 53.7005 25.1916H77.8891C78.0445 24.4922 78.1611 23.7151 78.2388 22.8602C78.2777 22.0053 78.2971 21.1505 78.2971 20.2956C78.2971 16.6819 77.248 13.8647 75.1497 11.8442C73.0125 9.82359 69.8651 8.8133 65.7074 8.8133ZM65.5908 1.23613C69.7874 1.23613 73.2845 2.0327 76.0822 3.62585C78.8411 5.219 80.9006 7.43387 82.2606 10.2704C83.6206 13.107 84.3006 16.4488 84.3006 20.2956C84.3006 21.5779 84.2228 23.0933 84.0674 24.8419C83.9508 26.5905 83.64 28.2031 83.1348 29.6797C82.4743 31.5837 81.328 32.5357 79.696 32.5357H51.0776C50.3393 32.5357 49.7759 32.3414 49.3873 31.9528C48.9987 31.5254 48.6879 30.9814 48.4547 30.3208C48.0273 28.8831 47.7359 27.3288 47.5804 25.6579C47.425 23.9482 47.3473 22.3551 47.3473 20.8785C47.3473 16.9539 48.0273 13.5345 49.3873 10.6202C50.7084 7.66701 52.7096 5.37443 55.3908 3.74242C58.0719 2.07156 61.4719 1.23613 65.5908 1.23613Z" fill="#284F58"/>
</svg>
