<svg width="232" height="104" viewBox="0 0 232 104" fill="none" xmlns="http://www.w3.org/2000/svg">
<path d="M31.46 50.11C31.46 46.9033 30.875 44.3033 29.705 42.31C28.5783 40.2733 27.0183 38.7783 25.025 37.825C23.075 36.8283 20.8433 36.33 18.33 36.33C17.3767 36.33 16.4667 36.3733 15.6 36.46C14.7767 36.5033 13.975 36.59 13.195 36.72V63.695C13.975 63.8683 14.8417 63.9983 15.795 64.085C16.7483 64.1283 17.7017 64.15 18.655 64.15C22.685 64.15 25.8267 62.98 28.08 60.64C30.3333 58.2567 31.46 54.7467 31.46 50.11ZM39.91 49.98C39.91 54.66 39.0217 58.56 37.245 61.68C35.4683 64.7567 32.9983 67.0533 29.835 68.57C26.6717 70.0867 22.945 70.845 18.655 70.845C17.225 70.845 15.535 70.7583 13.585 70.585C11.635 70.455 9.83667 70.1083 8.19 69.545C6.06667 68.8083 5.005 67.53 5.005 65.71V33.795C5.005 32.9717 5.22167 32.3433 5.655 31.91C6.13167 31.4767 6.73833 31.13 7.475 30.87C9.07833 30.3933 10.8117 30.0683 12.675 29.895C14.5817 29.7217 16.3583 29.635 18.005 29.635C22.3817 29.635 26.195 30.3933 29.445 31.91C32.7383 33.3833 35.295 35.615 37.115 38.605C38.9783 41.595 39.91 45.3867 39.91 49.98ZM77.2302 54.595C77.2302 57.9317 76.5802 60.835 75.2802 63.305C73.9802 65.7317 72.1385 67.6167 69.7552 68.96C67.4152 70.26 64.6418 70.91 61.4352 70.91C58.2285 70.91 55.4335 70.26 53.0502 68.96C50.6668 67.6167 48.8035 65.7317 47.4602 63.305C46.1602 60.8783 45.5102 57.975 45.5102 54.595C45.5102 51.2583 46.1818 48.3767 47.5252 45.95C48.8685 43.5233 50.7318 41.66 53.1152 40.36C55.4985 39.0167 58.2718 38.345 61.4352 38.345C64.5985 38.345 67.3502 39.0167 69.6902 40.36C72.0735 41.66 73.9152 43.545 75.2152 46.015C76.5585 48.4417 77.2302 51.3017 77.2302 54.595ZM61.4352 44.715C59.0518 44.715 57.1668 45.5817 55.7802 47.315C54.4368 49.0483 53.7652 51.475 53.7652 54.595C53.7652 57.8017 54.4368 60.2717 55.7802 62.005C57.1235 63.695 59.0085 64.54 61.4352 64.54C63.8185 64.54 65.6818 63.6733 67.0252 61.94C68.3685 60.2067 69.0402 57.7583 69.0402 54.595C69.0402 51.5183 68.3685 49.1133 67.0252 47.38C65.6818 45.6033 63.8185 44.715 61.4352 44.715ZM110.922 48.745V56.155H102.927V49.655C102.927 47.965 102.407 46.73 101.367 45.95C100.37 45.1267 99.092 44.715 97.532 44.715C96.4053 44.715 95.3653 44.8883 94.412 45.235C93.502 45.5383 92.722 45.9067 92.072 46.34V56.155H84.077V45.82C84.077 44.78 84.2937 43.935 84.727 43.285C85.1603 42.5917 85.8103 41.9633 86.677 41.4C88.0203 40.49 89.667 39.7533 91.617 39.19C93.6103 38.6267 95.6687 38.345 97.792 38.345C99.9153 38.345 101.865 38.67 103.642 39.32C105.419 39.97 106.87 40.9233 107.997 42.18C108.3 42.44 108.582 42.7 108.842 42.96C109.102 43.22 109.319 43.5233 109.492 43.87C109.882 44.52 110.207 45.2783 110.467 46.145C110.77 46.9683 110.922 47.835 110.922 48.745ZM129.707 49.395V56.155H121.712V49.655C121.712 47.965 121.235 46.73 120.282 45.95C119.329 45.1267 118.05 44.715 116.447 44.715C115.277 44.715 114.129 44.9533 113.002 45.43C111.919 45.9067 110.987 46.535 110.207 47.315L106.177 42.44C107.52 41.3133 109.102 40.36 110.922 39.58C112.742 38.7567 114.909 38.345 117.422 38.345C119.719 38.345 121.799 38.7133 123.662 39.45C125.525 40.1867 126.999 41.3783 128.082 43.025C129.165 44.6717 129.707 46.795 129.707 49.395ZM84.077 53.035H92.072V69.87C91.7253 70 91.227 70.1083 90.577 70.195C89.927 70.325 89.212 70.39 88.432 70.39C86.9587 70.39 85.8537 70.13 85.117 69.61C84.4237 69.0467 84.077 68.0717 84.077 66.685V53.035ZM102.927 53.035H110.922V69.87C110.575 70 110.055 70.1083 109.362 70.195C108.712 70.325 108.019 70.39 107.282 70.39C105.765 70.39 104.66 70.13 103.967 69.61C103.274 69.0467 102.927 68.0717 102.927 66.685V53.035ZM121.712 53.035H129.707V69.87C129.404 70 128.905 70.1083 128.212 70.195C127.562 70.325 126.869 70.39 126.132 70.39C124.615 70.39 123.489 70.13 122.752 69.61C122.059 69.0467 121.712 68.0717 121.712 66.685V53.035ZM153.501 38.345C156.274 38.345 158.766 38.9517 160.976 40.165C163.229 41.335 165.006 43.1333 166.306 45.56C167.606 47.9433 168.256 50.9333 168.256 54.53C168.256 58.17 167.562 61.2033 166.176 63.63C164.832 66.0567 162.926 67.8767 160.456 69.09C158.029 70.3033 155.191 70.91 151.941 70.91C149.471 70.91 147.304 70.6067 145.441 70C143.621 69.4367 142.082 68.765 140.826 67.985C139.916 67.335 139.244 66.685 138.811 66.035C138.421 65.3417 138.226 64.4967 138.226 63.5V42.505H146.221V62.98C146.784 63.37 147.542 63.7383 148.496 64.085C149.492 64.3883 150.619 64.54 151.876 64.54C154.346 64.54 156.317 63.7167 157.791 62.07C159.307 60.4233 160.066 57.91 160.066 54.53C160.066 51.1067 159.329 48.615 157.856 47.055C156.382 45.495 154.454 44.715 152.071 44.715C150.554 44.715 149.211 44.9967 148.041 45.56C146.871 46.1233 145.874 46.7733 145.051 47.51L144.531 41.01C145.527 40.4033 146.762 39.8183 148.236 39.255C149.752 38.6483 151.507 38.345 153.501 38.345ZM146.221 44.325H138.226V27.75C138.572 27.6633 139.071 27.555 139.721 27.425C140.371 27.295 141.086 27.23 141.866 27.23C143.382 27.23 144.487 27.5117 145.181 28.075C145.874 28.595 146.221 29.5483 146.221 30.935V44.325ZM178.612 58.69L178.287 53.1L195.707 50.5C195.577 48.8533 194.949 47.4233 193.822 46.21C192.696 44.9967 191.049 44.39 188.882 44.39C186.672 44.39 184.831 45.17 183.357 46.73C181.884 48.2467 181.126 50.435 181.082 53.295L181.277 56.675C181.667 59.4483 182.729 61.485 184.462 62.785C186.239 64.085 188.471 64.735 191.157 64.735C192.977 64.735 194.667 64.475 196.227 63.955C197.787 63.3917 199.022 62.785 199.932 62.135C200.539 62.525 201.016 63.0233 201.362 63.63C201.752 64.1933 201.947 64.8217 201.947 65.515C201.947 66.6417 201.449 67.6167 200.452 68.44C199.456 69.22 198.112 69.8267 196.422 70.26C194.732 70.6933 192.804 70.91 190.637 70.91C187.301 70.91 184.332 70.3033 181.732 69.09C179.176 67.8333 177.161 65.97 175.687 63.5C174.257 61.03 173.542 57.9533 173.542 54.27C173.542 51.6267 173.954 49.3083 174.777 47.315C175.601 45.3217 176.706 43.675 178.092 42.375C179.522 41.0317 181.169 40.035 183.032 39.385C184.896 38.6917 186.846 38.345 188.882 38.345C191.742 38.345 194.234 38.93 196.357 40.1C198.524 41.2267 200.214 42.8083 201.427 44.845C202.684 46.8817 203.312 49.2217 203.312 51.865C203.312 53.0783 202.987 53.9883 202.337 54.595C201.731 55.1583 200.864 55.505 199.737 55.635L178.612 58.69ZM217.756 46.6V55.505H209.761V45.95C209.761 44.8667 210.021 43.9567 210.541 43.22C211.061 42.44 211.797 41.725 212.751 41.075C214.051 40.295 215.697 39.645 217.691 39.125C219.684 38.605 221.829 38.345 224.126 38.345C228.199 38.345 230.236 39.6017 230.236 42.115C230.236 42.7217 230.149 43.285 229.976 43.805C229.802 44.2817 229.586 44.715 229.326 45.105C228.892 45.0183 228.351 44.9533 227.701 44.91C227.051 44.8233 226.357 44.78 225.621 44.78C224.061 44.78 222.587 44.9533 221.201 45.3C219.857 45.6033 218.709 46.0367 217.756 46.6ZM209.761 52.84L217.756 53.23V69.87C217.409 70 216.911 70.1083 216.261 70.195C215.611 70.325 214.896 70.39 214.116 70.39C212.642 70.39 211.537 70.13 210.801 69.61C210.107 69.0467 209.761 68.0717 209.761 66.685V52.84Z" fill="#005748"/>
</svg>
